<?xml version="1.0"?>
<svg xmlns="http://www.w3.org/2000/svg" xmlns:xlink="http://www.w3.org/1999/xlink" xmlns:svgjs="http://svgjs.com/svgjs" version="1.1" width="512" height="512" x="0" y="0" viewBox="0 0 512 512" style="enable-background:new 0 0 512 512" xml:space="preserve" class=""><g><g xmlns="http://www.w3.org/2000/svg"><g><g><path d="m454.472 389.613h-233.86l-115.395 78.177c-10.818 7.329-24.929-2.659-21.662-15.332l16.201-62.845h-42.228c-31.772 0-57.528-25.823-57.528-57.676v-232.539c0-31.853 25.756-57.676 57.528-57.676h396.944c31.772 0 57.528 25.822 57.528 57.676v232.539c0 31.853-25.756 57.676-57.528 57.676z" fill="#000000" data-original="#8795de" style="" class=""/></g></g><g><path d="m454.472 41.722h-46.392c-8.049 161.799-141.78 290.511-305.577 290.511-35.957 0-70.455-6.222-102.503-17.616v17.319c0 31.853 25.756 57.676 57.528 57.676h42.228l-16.201 62.845c-3.267 12.673 10.844 22.661 21.662 15.332l115.395-78.177h233.86c31.772 0 57.528-25.822 57.528-57.676v-232.538c0-31.853-25.756-57.676-57.528-57.676z" fill="#000000" data-original="#6c7fd8" style="" class=""/></g></g></g></svg>
