<svg id="Capa_1" enable-background="new 0 0 512 512" height="512" viewBox="0 0 512 512" width="512" xmlns="http://www.w3.org/2000/svg"><g><g><path d="m259.86 457.337c-8.284 0-15-6.716-15-15v-35h-10.584c-8.284 0-15-6.716-15-15s6.716-15 15-15h25.584c8.284 0 15 6.716 15 15v50c0 8.284-6.716 15-15 15z" fill="#ccbeb9"/><path d="m161.618 457.337c-8.284 0-15-6.716-15-15v-50c0-8.284 6.716-15 15-15s15 6.716 15 15v50c0 8.284-6.716 15-15 15z" fill="#eeeced"/><path d="m161.618 377.337c8.284 0 15 6.716 15 15v50c0 8.284-6.716 15-15 15z" fill="#ccbeb9"/><path d="m63.376 457.337c-8.284 0-15-6.716-15-15v-50c0-8.284 6.716-15 15-15h25.583c8.284 0 15 6.716 15 15s-6.716 15-15 15h-10.583v35c0 8.284-6.716 15-15 15z" fill="#eeeced"/><path d="m285.444 427.337h-247.652c-8.284 0-15 6.716-15 15v50c0 8.284 6.716 15 15 15h247.652c8.284 0 15-6.716 15-15v-50c0-8.284-6.716-15-15-15z" fill="#59595a"/><path d="m285.444 427.337h-123.826v80h123.826c8.284 0 15-6.716 15-15v-50c0-8.284-6.716-15-15-15z" fill="#444"/></g><g><path d="m396.711 313.175h-88.476c-8.284 0-15-6.716-15-15s6.716-15 15-15h88.476c8.284 0 15 6.716 15 15s-6.715 15-15 15z" fill="#eeeced"/><path d="m472 258.175h-75.289c-8.284 0-15 6.716-15 15v50c0 8.284 6.716 15 15 15h75.289c22.056 0 40-17.944 40-40s-17.944-40-40-40z" fill="#3b484a"/><path d="m308.236 244.287h-293.236c-8.284 0-15 6.716-15 15v32.727c0 33.111 26.937 60.049 60.048 60.049h203.139c33.111 0 60.048-26.938 60.048-60.049v-32.727c.001-8.284-6.715-15-14.999-15z" fill="#fa7578"/><path d="m308.236 244.287h-146.618v107.775h101.57c33.111 0 60.048-26.938 60.048-60.049v-32.727c0-8.283-6.716-14.999-15-14.999z" fill="#f9545b"/></g><g><path d="m244.687 213.791c-8.284 0-15-6.716-15-15 0-27.665 22.507-50.173 50.172-50.173 8.284 0 15 6.716 15 15s-6.716 15-15 15c-11.123 0-20.172 9.05-20.172 20.173.001 8.285-6.715 15-15 15z" fill="#f85"/><path d="m304.035 25.135c-11.253-11.252-25.477-18.388-40.055-20.091-15.658-1.826-30.478 2.96-40.656 13.14-10.18 10.179-14.968 24.997-13.139 40.656 1.703 14.577 8.838 28.803 20.09 40.054 2.929 2.93 6.768 4.394 10.606 4.394s7.678-1.465 10.606-4.394l15.666-15.666 8.029 8.029c2.929 2.929 6.768 4.394 10.606 4.394s7.678-1.465 10.606-4.394c5.858-5.857 5.858-15.355 0-21.213l-8.029-8.029 15.667-15.667c5.86-5.857 5.86-15.355.003-21.213z" fill="#f0915a"/><circle cx="185.136" cy="28.05" fill="#00cc76" r="14"/><circle cx="161.618" cy="196.175" fill="#a5e887" r="14"/><path d="m175.618 196.175c0-7.732-6.268-14-14-14v28c7.732 0 14-6.268 14-14z" fill="#00cc76"/><circle cx="98.44" cy="78.015" fill="#a5e887" r="14"/><circle cx="159.861" cy="111.297" fill="#fa7578" r="40.275"/><path d="m200.136 111.297c0-21.619-17.123-39.307-38.518-40.231v80.462c21.395-.924 38.518-18.612 38.518-40.231z" fill="#f9545b"/><path d="m99.912 131.339c-10.18-10.179-25-14.967-40.657-13.14-14.577 1.703-28.802 8.838-40.054 20.091-2.813 2.813-4.394 6.628-4.394 10.606s1.581 7.794 4.394 10.606l15.667 15.667-8.029 8.029c-5.857 5.857-5.857 15.355 0 21.213 2.929 2.929 6.768 4.394 10.606 4.394s7.678-1.465 10.607-4.394l8.028-8.028 15.666 15.666c2.929 2.93 6.767 4.394 10.606 4.394 3.838 0 7.678-1.465 10.606-4.394 11.252-11.252 18.387-25.477 20.09-40.054 1.832-15.659-2.957-30.477-13.136-40.656z" fill="#fab991"/><path d="m33.376 73.976c-8.284 0-15-6.716-15-15s6.716-15 15-15c11.123 0 20.172-9.049 20.172-20.172 0-8.284 6.716-15 15-15s15 6.716 15 15c0 27.665-22.507 50.172-50.172 50.172z" fill="#ffb74b"/></g></g></svg>