<svg id="Layer_1" enable-background="new 0 0 512 512" height="512" viewBox="0 0 512 512" width="512" xmlns="http://www.w3.org/2000/svg"><g><g><g><g><g id="XMLID_1591_"><g id="XMLID_1592_"><g id="XMLID_1593_"><g id="XMLID_1594_"><g id="XMLID_1595_"><g id="XMLID_1611_"><g id="XMLID_1612_"><g id="XMLID_1613_"><g id="XMLID_1627_"><g id="XMLID_1628_"><g id="XMLID_1629_"><g id="XMLID_1630_"><g id="XMLID_1631_"><g id="XMLID_1632_"><g><path d="m512 256c0 26.11-3.91 51.32-11.18 75.05-32.08 104.76-129.55 58.494-244.82 58.494s-212.74 46.266-244.82-58.494c-7.27-23.73-11.18-48.94-11.18-75.05 0-141.38 114.62-256 256-256s256 114.62 256 256z" fill="#ffd357"/></g></g></g></g></g></g></g></g></g></g></g></g></g></g></g></g></g><path d="m366.541 124.211v15.289l-110.541-110-40.638 91.416 2.138 64.305-72.042-61.01-34.958 110.462-15.866-8.554-59.717 114.881 57.992 57.992c44.289 3.917 101.113-9.448 163.091-9.448 115.27 0 212.74 46.266 244.82-58.494 6.026-19.669 9.735-40.357 10.831-61.729z" fill="#ffb806"/><g><g><g><path d="m256 32.405-141.687 308.595h283.374z" fill="#8e99ce"/><path d="m397.69 341h-141.69v-308.59l40.64 88.51z" fill="#7483ba"/><path d="m145.458 128.346-110.541 212.654h221.083z" fill="#acbbe9"/><path d="m366.542 128.346-110.542 212.654h221.083z" fill="#8e99ce"/></g><path d="m145.458 124.211-50.824 101.908 27.515-15.912 23.309 36.025 23.309-36.025 27.516 15.912z" fill="#fff"/><path d="m366.542 124.211-50.825 101.908 27.515-15.912 23.31 36.025 23.309-36.025 27.515 15.912z" fill="#e2e2e2"/><path d="m256 29.5-40.64 91.42 19.221-10.654 21.419 26.729 21.419-26.729 19.221 10.654z" fill="#fff"/><path d="m296.64 120.92-19.22-10.65-21.42 26.72v-107.49z" fill="#e2e2e2"/></g><path d="m497.54 341c-35.04 99.6-129.96 171-241.54 171s-206.5-71.4-241.54-171z" fill="#81cf88"/><path d="m497.54 341c-35.04 99.6-129.96 171-241.54 171v-171z" fill="#66b268"/></g></g><g><g><path d="m139.139 391.366h116.862v38.252h-116.862z" fill="#66b268"/></g></g><g><g><path d="m315.717 391.365h65.019v38.252h-65.019z" fill="#479947"/></g></g></g></svg>