<svg id="Capa_1" enable-background="new 0 0 512 512" height="512" viewBox="0 0 512 512" width="512" xmlns="http://www.w3.org/2000/svg"><g><g><g><path d="m454.472 389.613h-233.86l-115.395 78.177c-10.818 7.329-24.929-2.659-21.662-15.332l16.201-62.845h-42.228c-31.772 0-57.528-25.823-57.528-57.676v-232.539c0-31.853 25.756-57.676 57.528-57.676h396.944c31.772 0 57.528 25.822 57.528 57.676v232.539c0 31.853-25.756 57.676-57.528 57.676z" fill="#8795de"/></g></g><g><path d="m454.472 41.722h-46.392c-8.049 161.799-141.78 290.511-305.577 290.511-35.957 0-70.455-6.222-102.503-17.616v17.319c0 31.853 25.756 57.676 57.528 57.676h42.228l-16.201 62.845c-3.267 12.673 10.844 22.661 21.662 15.332l115.395-78.177h233.86c31.772 0 57.528-25.822 57.528-57.676v-232.538c0-31.853-25.756-57.676-57.528-57.676z" fill="#6c7fd8"/></g></g></svg>